<svg width="1920" height="1080" viewBox="0 0 1920 1080" fill="none" xmlns="http://www.w3.org/2000/svg">
<g clip-path="url(#clip0_301_81)">
<path d="M0 1080V18C90.8096 200.186 302.721 510.354 423.889 293.538C545.057 76.7212 703.982 433.733 768.299 639.34C820.952 727.506 956.05 903.836 1075.22 903.836H1163.2C1311.66 862.012 1654.67 824.638 1839.02 1009.74L1909 1080H0Z" fill="#F9FAFE" stroke="#F9FAFE"/>
<path d="M-1 1207V149C89.8333 330.5 301.8 639.5 423 423.5C544.2 207.5 703.167 563.167 767.5 768C820.167 855.833 955.3 1031.5 1074.5 1031.5H1162.5C1311 989.833 1654.1 952.6 1838.5 1137L1908.5 1207H-1Z" fill="#F2F5FC" stroke="#F2F5FC"/>
</g>
<defs>
<clipPath id="clip0_301_81">
<rect width="1920" height="1080" fill="white"/>
</clipPath>
</defs>
</svg>
